# Blender v2.78 (sub 0) OBJ File: 'door.blend'
# www.blender.org
mtllib door.mtl
o Cube.001
v -2.188228 -6.410570 -0.214506
v -2.188228 -1.280622 -0.214506
v -2.188228 -6.410570 0.195296
v -2.188228 -1.280622 0.195296
v 2.178057 -6.410570 -0.214506
v 2.178057 -1.280622 -0.214506
v 2.178057 -6.410570 0.195296
v 2.178057 -1.280622 0.195296
vt 0.9934 -0.0012
vt 0.9934 1.0012
vt -0.0090 1.0012
vt -0.0090 -0.0012
vt -0.0080 -0.0027
vt -0.0080 1.0027
vt 0.9924 1.0027
vt 0.9924 -0.0027
vt 0.9934 -0.0012
vt 0.9934 1.0012
vt -0.0090 1.0012
vt -0.0090 -0.0012
vt 0.9934 -0.0012
vt 0.9934 1.0012
vt -0.0090 1.0012
vt -0.0090 -0.0012
vt -0.0163 0.0850
vt 0.9800 0.0850
vt 0.9800 0.0315
vt -0.0163 0.0315
vt 0.9835 0.4737
vt -0.0086 0.4737
vt -0.0086 0.5270
vt 0.9835 0.5270
vn 1.0000 0.0000 0.0000
vn 0.0000 0.0000 -1.0000
vn -1.0000 0.0000 0.0000
vn 0.0000 0.0000 1.0000
vn 0.0000 1.0000 0.0000
vn 0.0000 -1.0000 0.0000
usemtl Material
s off
f 1/1/1 2/2/1 4/3/1 3/4/1
f 3/5/2 4/6/2 8/7/2 7/8/2
f 7/9/3 8/10/3 6/11/3 5/12/3
f 5/13/4 6/14/4 2/15/4 1/16/4
f 3/17/5 7/18/5 5/19/5 1/20/5
f 8/21/6 4/22/6 2/23/6 6/24/6
