# Blender v2.78 (sub 0) OBJ File: 'SupportBeam.blend'
# www.blender.org
mtllib SupportBeam.mtl
o Cube
v 11.200000 -0.500000 -1.038500
v 11.200000 -0.500000 1.038500
v -11.200001 -0.500000 1.038500
v -11.199996 -0.500000 -1.038500
v 11.200006 0.500000 -1.038499
v 11.199992 0.500000 1.038501
v -11.200004 0.500000 1.038500
v -11.199999 0.500000 -1.038500
v 11.200006 0.500000 -1.038499
v 11.199992 0.500000 1.038501
v 11.200000 -0.500000 1.038500
v -11.200001 -0.500000 1.038500
v 11.199992 0.500000 1.038501
v -11.200004 0.500000 1.038500
vt -4.2728 2.5961
vt -4.2728 1.7342
vt 5.0226 1.7342
vt 5.0226 2.5961
vt -5.1684 -1.6192
vt 4.1269 -1.6160
vt 4.1269 -0.7541
vt -5.1687 -0.7573
vt 6.7683 2.6052
vt 6.3533 2.6052
vt 6.3533 1.7433
vt 6.7683 1.7433
vt 4.0644 -0.4754
vt 4.0644 -0.0605
vt -5.2311 -0.0605
vt -5.2311 -0.4754
vt -5.7626 1.7433
vt -5.3476 1.7433
vt -5.3476 2.6052
vt -5.7626 2.6052
vt 4.0093 -2.4345
vt 4.0093 -2.0195
vt -5.2862 -2.0195
vt -5.2862 -2.4345
vn 0.0000 -1.0000 -0.0000
vn 0.0000 1.0000 0.0000
vn 1.0000 0.0000 0.0000
vn -0.0000 -0.0000 1.0000
vn -1.0000 -0.0000 -0.0000
vn 0.0000 0.0000 -1.0000
usemtl Material.001
s off
f 1/1/1 11/2/1 12/3/1 4/4/1
f 5/5/2 8/6/2 7/7/2 6/8/2
f 1/9/3 9/10/3 13/11/3 11/12/3
f 2/13/4 10/14/4 14/15/4 3/16/4
f 12/17/5 7/18/5 8/19/5 4/20/5
f 9/21/6 1/22/6 4/23/6 8/24/6
