# Blender v2.78 (sub 0) OBJ File: 'WallDoor.blend'
# www.blender.org
mtllib wall_door.mtl
o Cube
v 10.923995 -6.426600 -0.192000
v 10.923995 -6.426600 0.192000
v -10.923996 -6.426600 0.192000
v -10.923991 -6.426600 -0.192000
v 10.924000 6.426600 -0.192000
v 10.923987 6.426600 0.192000
v -10.923999 6.426600 0.192000
v -10.923994 6.426600 -0.192000
v 10.923996 -3.855960 -0.192000
v 10.923998 -1.285320 -0.192000
v 10.923999 1.285320 -0.192000
v 10.924000 3.855960 -0.192000
v 10.923994 -3.855960 0.192000
v 10.923992 -1.285320 0.192000
v 10.923991 1.285320 0.192000
v 10.923990 3.855960 0.192000
v -10.923996 -3.855960 0.192000
v -10.923998 -1.285320 0.192000
v -10.923998 1.285320 0.192000
v -10.923998 3.855960 0.192000
v -10.923992 -3.855960 -0.192000
v -10.923992 -1.285320 -0.192000
v -10.923993 1.285320 -0.192000
v -10.923994 3.855960 -0.192000
v 6.554401 6.426600 -0.192000
v 2.184802 6.426600 -0.192000
v -2.184797 6.426600 -0.192000
v -6.554396 6.426600 -0.192000
v 6.554391 6.426600 0.192000
v 2.184793 6.426600 0.192000
v -2.184804 6.426600 0.192000
v -6.554401 6.426600 0.192000
v 6.554401 3.855960 -0.192000
v 2.184803 3.855960 -0.192000
v -2.184796 3.855960 -0.192000
v -6.554395 3.855960 -0.192000
v 2.184802 1.077982 -0.192000
v -2.184797 1.077982 -0.192000
v 6.201964 -1.285320 -0.192000
v -6.201959 -1.285320 -0.192000
v 6.201963 -3.855960 -0.192000
v -2.184797 -3.855960 -0.192000
v -6.201959 -3.855960 -0.192000
v 6.201961 -3.855960 0.192000
v -2.184800 -3.855960 0.192000
v -6.201963 -3.855960 0.192000
v 6.201959 -1.285320 0.192000
v -6.201964 -1.285320 0.192000
v 2.184796 1.077982 0.192000
v -2.184802 1.077982 0.192000
v 6.554392 3.855960 0.192000
v 2.184795 3.855960 0.192000
v -2.184803 3.855960 0.192000
v -6.554400 3.855960 0.192000
v 2.537236 -6.219262 -0.192000
v -2.537233 -6.219262 -0.192000
v 2.537235 -6.219262 0.192000
v -2.537235 -6.219262 0.192000
v 2.184802 -1.285320 -0.192000
v -2.537232 -1.077982 -0.192000
v 2.184801 -3.855960 -0.192000
v 2.184797 -1.285320 0.192000
v -2.537238 -1.077982 0.192000
v 2.184798 -3.855960 0.192000
v 6.554397 -6.426600 -0.192000
v 2.184800 -6.426600 -0.192000
v -2.184797 -6.426600 -0.192000
v -6.554395 -6.426600 -0.192000
v 6.554397 -6.426600 0.192000
v 2.184799 -6.426600 0.192000
v -2.184799 -6.426600 0.192000
v -6.554398 -6.426600 0.192000
v 6.554400 1.285320 -0.192000
v 2.184802 1.285320 -0.192000
v -2.184797 1.285320 -0.192000
v -6.554395 1.285320 -0.192000
v 2.537238 -1.077982 -0.192000
v -2.184797 -1.285320 -0.192000
v 6.554400 -1.285320 -0.192000
v -6.554395 -1.285320 -0.192000
v 6.554399 -3.855960 -0.192000
v 2.537237 -3.855960 -0.192000
v -2.537232 -3.855960 -0.192000
v -6.554395 -3.855960 -0.192000
v 2.537232 -1.077982 0.192000
v -2.184802 -1.285320 0.192000
v 6.554393 1.285320 0.192000
v 2.184796 1.285320 0.192000
v -2.184802 1.285320 0.192000
v -6.554400 1.285320 0.192000
v 6.554396 -3.855960 0.192000
v 2.537234 -3.855960 0.192000
v -2.537236 -3.855960 0.192000
v -6.554399 -3.855960 0.192000
v 6.554395 -1.285320 0.192000
v -6.554400 -1.285320 0.192000
v -2.541304 -6.426600 0.192000
v 2.535221 -6.426600 0.192000
v 2.535121 -6.426600 -0.192000
v -2.542152 -6.426600 -0.192000
v 2.535121 -6.426600 -0.192000
v 2.184800 -6.426600 -0.192000
v 2.184802 -1.285320 -0.192000
v -2.184797 -1.285320 -0.192000
v 2.184801 -3.855960 -0.192000
v -2.184797 -3.855960 -0.192000
v -2.184797 -6.426600 -0.192000
v 2.537238 -1.077982 -0.192000
v -2.537232 -1.077982 -0.192000
v 2.537237 -3.855960 -0.192000
v -2.537232 -3.855960 -0.192000
v 2.537236 -6.219262 -0.192000
v -2.537233 -6.219262 -0.192000
v -2.542152 -6.426600 -0.192000
v 2.535121 -6.426600 -0.364330
v 2.184800 -6.426600 -0.364330
v 2.184802 -1.285320 -0.364330
v -2.184797 -1.285320 -0.364330
v 2.184801 -3.855960 -0.364330
v -2.184797 -3.855960 -0.364330
v -2.184797 -6.426600 -0.364330
v 2.537238 -1.077982 -0.364330
v -2.537232 -1.077982 -0.364330
v 2.537237 -3.855960 -0.364330
v -2.537232 -3.855960 -0.364330
v 2.537236 -6.219262 -0.364330
v -2.537233 -6.219262 -0.364330
v -2.542152 -6.426600 -0.364330
v 2.535221 -6.426600 0.357510
v 2.184799 -6.426600 0.357510
v 2.184797 -1.285320 0.357510
v -2.184802 -1.285320 0.357510
v 2.184798 -3.855960 0.357510
v -2.184800 -3.855960 0.357510
v -2.184799 -6.426600 0.357510
v 2.537232 -1.077982 0.357510
v -2.537238 -1.077982 0.357510
v 2.537234 -3.855960 0.357510
v 2.537235 -6.219262 0.357510
v -2.537236 -3.855960 0.357510
v -2.537235 -6.219262 0.357510
v -2.541304 -6.426600 0.357510
vt 0.3813 1.2467
vt 0.3813 1.4548
vt 0.0983 1.4548
vt 0.0983 1.2467
vt 0.3813 0.4143
vt 0.3813 0.6224
vt 0.0983 0.6224
vt 0.0983 0.4143
vt 0.3813 0.8305
vt 0.0983 0.8305
vt 0.3813 1.0386
vt 0.0983 1.0386
vt 1.5131 0.4143
vt 1.5131 0.6224
vt 1.2302 0.6224
vt 1.2302 0.4143
vt 1.5131 0.8305
vt 1.2302 0.8305
vt 1.2073 0.6224
vt 0.9700 0.6224
vt 0.9700 0.4311
vt 0.9699 0.4143
vt 0.6414 0.8473
vt 0.6642 1.0218
vt 0.6642 1.0386
vt 0.4041 0.8305
vt 1.5131 1.0386
vt 1.2302 1.0386
vt 0.9472 1.0218
vt 0.9700 0.8473
vt 1.2073 0.8305
vt 0.9472 1.0386
vt 1.5131 1.2467
vt 1.2302 1.2467
vt 0.9472 1.2467
vt 0.6642 1.2467
vt 1.5131 1.4548
vt 1.2302 1.4548
vt 0.9472 1.4548
vt 0.6642 1.4548
vt 0.6414 0.4311
vt 0.6414 0.6224
vt 0.4041 0.6224
vt 0.6411 0.4143
vt -3.7939 -0.0062
vt -3.7939 0.1019
vt -3.3872 0.1019
vt -3.3872 -0.0062
vt -0.9470 -0.0062
vt -1.3537 -0.0062
vt -1.3537 0.1019
vt -0.9470 0.1019
vt 1.0865 -0.0062
vt 0.6798 -0.0062
vt 0.6798 0.1019
vt 1.0865 0.1019
vt -1.7604 0.1019
vt -1.7604 -0.0062
vt 1.2302 0.6224
vt 1.2302 0.4143
vt 1.5132 0.4143
vt 1.5132 0.6224
vt 1.2302 1.4548
vt 1.2302 1.2467
vt 1.5132 1.2467
vt 1.5132 1.4548
vt 1.2302 1.0386
vt 1.5132 1.0386
vt 1.2302 0.8305
vt 1.5132 0.8305
vt 0.0983 1.4548
vt 0.0983 1.2467
vt 0.3813 1.2467
vt 0.3813 1.4548
vt 0.6642 1.2467
vt 0.6642 1.4548
vt 0.9472 1.2467
vt 0.9472 1.4548
vt 0.0983 1.0386
vt 0.3813 1.0386
vt 0.6642 1.0386
vt 0.9472 1.0386
vt 0.0983 0.8305
vt 0.3813 0.8305
vt 0.9472 1.0218
vt 0.9700 0.8473
vt 1.2074 0.8305
vt 0.0983 0.6224
vt 0.3813 0.6224
vt 0.4041 0.8305
vt 0.6414 0.8473
vt 0.6642 1.0218
vt 0.9700 0.6224
vt 0.9700 0.4311
vt 0.9703 0.4143
vt 1.2074 0.6224
vt 0.0983 0.4143
vt 0.3813 0.4143
vt -2.9805 0.1019
vt -2.9805 -0.0062
vt -2.5738 0.1019
vt -2.5738 -0.0062
vt -2.1671 0.1019
vt -2.1671 -0.0062
vt 2.7133 -0.0062
vt 2.3066 -0.0062
vt 2.3066 0.1019
vt 2.7133 0.1019
vt 1.8999 -0.0062
vt 1.8999 0.1019
vt 1.4932 -0.0062
vt 1.4932 0.1019
vt 0.2731 -0.0062
vt 0.2731 0.1019
vt -0.1336 -0.0062
vt -0.1336 0.1019
vt -0.5403 -0.0062
vt -0.5403 0.1019
vt 3.1200 0.1019
vt 3.1200 -0.0062
vt 3.4941 0.1019
vt 3.5296 0.1019
vt 3.5296 -0.0062
vt 3.4941 -0.0062
vt -4.2029 -0.0062
vt -4.2030 0.1019
vt -4.1675 0.1019
vt -4.1674 -0.0062
vt 0.4041 0.6224
vt 0.6414 0.6224
vt 0.6414 0.4311
vt 0.6415 0.4143
vt 0.1350 -8.2452
vt 1.6220 -8.2452
vt 1.6220 -8.0234
vt 0.0045 -8.0234
vt 0.0045 -8.2483
vt 4.2753 -5.9777
vt -0.7039 -5.9777
vt -0.3581 -6.1812
vt 3.9295 -6.1812
vt 3.1267 -5.0456
vt 1.3788 -5.0456
vt 1.3788 -5.2674
vt 2.9963 -5.2674
vt 3.3698 -8.2452
vt 3.2394 -8.0234
vt -0.1081 -5.0456
vt -0.2386 -5.0470
vt -0.2386 -5.2674
vt -4.8359 -4.6688
vt -4.8359 -4.2443
vt -7.6778 -4.2443
vt -7.6778 -4.6688
vt -1.9939 -4.6688
vt -1.9939 -4.2443
vt -2.3809 -8.6919
vt -2.3810 -8.2674
vt -7.2118 -8.2674
vt -7.2117 -8.6920
vt -5.0682 -6.6437
vt -5.0682 -7.0683
vt -2.2262 -7.0683
vt -2.2262 -6.6437
vt -7.9101 -6.6437
vt -7.9101 -7.0683
vt -0.7917 -0.6629
vt -0.7917 -0.6629
vt -0.7917 -0.6629
vt -0.7917 -0.6629
vt -0.7917 -0.6629
vt -0.7917 -0.6629
vt -0.7917 -0.6629
vt -0.7917 -0.6629
vt -0.7917 -0.6629
vt -0.7917 -0.6629
vt -0.7917 -0.6629
vt -0.7917 -0.6629
vt -0.7917 -0.6629
vt -0.7917 -0.6629
vt -0.7917 -0.6629
vt -0.7917 -0.6629
vt -4.3135 -1.2840
vt -6.4521 -1.2840
vt -6.4521 -1.4338
vt -4.3135 -1.4338
vt -0.7917 -0.6629
vt -0.7917 -0.6629
vt -0.7917 -0.6629
vt -0.7917 -0.6629
vt -1.9939 -4.0613
vt -4.8359 -4.0613
vt -6.9971 -5.8428
vt -4.8585 -5.8428
vt -4.8585 -5.6930
vt -6.9971 -5.6930
vt -5.0682 -7.2513
vt -2.2262 -7.2513
vt -2.3447 -6.1903
vt -4.8585 -6.1903
vt -4.8585 -6.3462
vt -2.3447 -6.3462
vt -3.4559 -2.6791
vt 2.0976 -2.6791
vt 2.0976 -2.4906
vt -3.4559 -2.4906
vt -4.8359 -4.6688
vt -7.6778 -4.6688
vt -7.6778 -4.8593
vt -4.8359 -4.8593
vt -7.9101 -6.6437
vt -5.0682 -6.6437
vt -5.0682 -6.4532
vt -7.9101 -6.4532
vt -1.9939 -4.6688
vt -1.9939 -4.8593
vt -0.7917 -0.6629
vt -0.7917 -0.6629
vt -0.7917 -0.6629
vt -0.7917 -0.6629
vt -0.7917 -0.6629
vt -0.7917 -0.6629
vt -0.7917 -0.6629
vt -0.7917 -0.6629
vt -0.7917 -0.6629
vt -0.7917 -0.6629
vt -0.7917 -0.6629
vt -0.7917 -0.6629
vt -0.7917 -0.6629
vt -0.7917 -0.6629
vt -6.9971 -6.1903
vt -7.1847 -6.1903
vt -7.1847 -6.3462
vt -6.9971 -6.3462
vt -4.3135 -0.9365
vt -1.7996 -0.9365
vt -1.7996 -0.7806
vt -4.3135 -0.7806
vt -2.3809 -8.6919
vt -7.2117 -8.6920
vt -7.2117 -8.8825
vt -2.3809 -8.8825
vt -0.7917 -0.6629
vt -0.7917 -0.6629
vt -2.2262 -6.6437
vt -2.2262 -6.4532
vt -6.6397 -0.9365
vt -6.4521 -0.9365
vt -6.4521 -0.7806
vt -6.6397 -0.7806
vt -0.1051 -4.5376
vt 1.3819 -4.5376
vt 1.3819 -4.3158
vt -0.2355 -4.3158
vt -0.2355 -4.5363
vt 4.2089 -6.9495
vt -0.7703 -6.9495
vt -0.4245 -7.1530
vt 3.8631 -7.1530
vt 3.1298 -4.5376
vt 2.9993 -4.3158
vt 3.0904 -3.7071
vt 1.3425 -3.7071
vt 1.3425 -3.9289
vt 2.9599 -3.9289
vt -0.1445 -3.7071
vt -0.2749 -3.7046
vt -0.2749 -3.9289
vt -2.3447 -5.8428
vt -2.3447 -5.6930
vt -6.6397 -1.2840
vt -6.6397 -1.4338
vt -1.7996 -1.2840
vt -1.7996 -1.4338
vt -7.9101 -7.2513
vt -7.6778 -4.0613
vt -7.1847 -5.8428
vt -7.1847 -5.6930
vt -2.3810 -8.0844
vt -7.2118 -8.0845
vt -0.7917 -0.6629
vt -0.7917 -0.6629
vt -0.7917 -0.6629
vt -0.7917 -0.6629
vt 2.0976 -3.0994
vt -3.4559 -3.0994
vt -3.4559 -3.2805
vt 2.0976 -3.2805
vn -0.0000 -0.0000 1.0000
vn 0.0000 -1.0000 0.0000
vn 0.0000 1.0000 -0.0000
vn 1.0000 0.0000 0.0000
vn -1.0000 0.0000 -0.0000
vn 0.0000 0.0000 -1.0000
vn 0.9999 -0.0102 0.0000
vn -0.9997 0.0237 0.0000
vn -0.9998 0.0196 0.0000
vn 1.0000 -0.0097 0.0000
usemtl Material.001
s off
f 54/1/1 32/2/1 7/3/1 20/4/1
f 72/5/1 94/6/1 17/7/1 3/8/1
f 94/6/1 96/9/1 18/10/1 17/7/1
f 96/9/1 90/11/1 19/12/1 18/10/1
f 90/11/1 54/1/1 20/4/1 19/12/1
f 2/13/1 13/14/1 91/15/1 69/16/1
f 13/14/1 14/17/1 95/18/1 91/15/1
f 44/19/1 92/20/1 57/21/1 98/22/1 69/16/1 91/15/1
f 63/23/1 50/24/1 89/25/1 90/11/1 96/9/1 48/26/1
f 14/17/1 15/27/1 87/28/1 95/18/1
f 49/29/1 85/30/1 47/31/1 95/18/1 87/28/1 88/32/1
f 15/27/1 16/33/1 51/34/1 87/28/1
f 87/28/1 51/34/1 52/35/1 88/32/1
f 88/32/1 52/35/1 53/36/1 89/25/1
f 89/25/1 53/36/1 54/1/1 90/11/1
f 16/33/1 6/37/1 29/38/1 51/34/1
f 51/34/1 29/38/1 30/39/1 52/35/1
f 52/35/1 30/39/1 31/40/1 53/36/1
f 53/36/1 31/40/1 32/2/1 54/1/1
f 58/41/1 93/42/1 46/43/1 94/6/1 72/5/1 97/44/1
f 93/42/1 63/23/1 48/26/1 96/9/1 94/6/1 46/43/1
f 47/31/1 85/30/1 92/20/1 44/19/1 91/15/1 95/18/1
f 85/30/1 49/29/1 88/32/1 89/25/1 50/24/1 63/23/1
usemtl Material.001_NONE
f 68/45/2 72/46/2 3/47/2 4/48/2
f 28/49/3 8/50/3 7/51/3 32/52/3
f 12/53/4 5/54/4 6/55/4 16/56/4
f 20/57/5 7/51/5 8/50/5 24/58/5
f 84/59/6 68/60/6 4/61/6 21/62/6
f 28/63/6 36/64/6 24/65/6 8/66/6
f 36/64/6 76/67/6 23/68/6 24/65/6
f 76/67/6 80/69/6 22/70/6 23/68/6
f 80/69/6 84/59/6 21/62/6 22/70/6
f 5/71/6 12/72/6 33/73/6 25/74/6
f 25/74/6 33/73/6 34/75/6 26/76/6
f 26/76/6 34/75/6 35/77/6 27/78/6
f 27/78/6 35/77/6 36/64/6 28/63/6
f 12/72/6 11/79/6 73/80/6 33/73/6
f 33/73/6 73/80/6 74/81/6 34/75/6
f 34/75/6 74/81/6 75/82/6 35/77/6
f 35/77/6 75/82/6 76/67/6 36/64/6
f 11/79/6 10/83/6 79/84/6 73/80/6
f 38/85/6 60/86/6 40/87/6 80/69/6 76/67/6 75/82/6
f 10/83/6 9/88/6 81/89/6 79/84/6
f 39/90/6 77/91/6 37/92/6 74/81/6 73/80/6 79/84/6
f 83/93/6 56/94/6 100/95/6 68/60/6 84/59/6 43/96/6
f 9/88/6 1/97/6 65/98/6 81/89/6
f 3/47/5 17/99/5 21/100/5 4/48/5
f 17/99/5 18/101/5 22/102/5 21/100/5
f 18/101/5 19/103/5 23/104/5 22/102/5
f 19/103/5 20/57/5 24/58/5 23/104/5
f 1/105/4 9/106/4 13/107/4 2/108/4
f 9/106/4 10/109/4 14/110/4 13/107/4
f 10/109/4 11/111/4 15/112/4 14/110/4
f 11/111/4 12/53/4 16/56/4 15/112/4
f 5/54/3 25/113/3 29/114/3 6/55/3
f 25/113/3 26/115/3 30/116/3 29/114/3
f 26/115/3 27/117/3 31/118/3 30/116/3
f 27/117/3 28/49/3 32/52/3 31/118/3
f 1/105/2 2/108/2 69/119/2 65/120/2
f 65/120/2 69/119/2 98/121/2 70/122/2 66/123/2 99/124/2
f 67/125/2 71/126/2 97/127/2 72/46/2 68/45/2 100/128/2
f 37/92/6 77/91/6 60/86/6 38/85/6 75/82/6 74/81/6
f 60/86/6 83/93/6 43/96/6 84/59/6 80/69/6 40/87/6
f 41/129/6 82/130/6 77/91/6 39/90/6 79/84/6 81/89/6
f 55/131/6 82/130/6 41/129/6 81/89/6 65/98/6 99/132/6
usemtl Border
f 127/133/6 125/134/6 120/135/6 121/136/6 128/137/6
f 123/138/6 122/139/6 117/140/6 118/141/6
f 122/142/6 124/143/6 119/144/6 117/145/6
f 125/134/6 123/146/6 118/147/6 120/135/6
f 126/148/6 115/149/6 116/150/6 119/144/6 124/143/6
usemtl Border_NONE
f 42/151/4 45/152/4 71/153/4 67/154/4
f 78/155/4 86/156/4 45/152/4 42/151/4
f 59/157/2 62/158/2 86/159/2 78/160/2
f 61/161/5 64/162/5 62/163/5 59/164/5
f 66/165/5 70/166/5 64/162/5 61/161/5
f 42/167/1 67/168/1 107/169/1 106/170/1
f 97/171/2 71/172/2 135/173/2 142/174/2
f 55/175/1 99/176/1 101/177/1 112/178/1
f 66/179/1 61/180/1 105/181/1 102/182/1
f 99/176/1 66/179/1 102/182/1 101/177/1
f 93/183/5 58/184/5 141/185/5 140/186/5
f 56/187/1 83/188/1 111/189/1 113/190/1
f 45/152/4 86/156/4 132/191/4 134/192/4
f 57/193/4 92/194/4 138/195/4 139/196/4
f 62/163/5 64/162/5 133/197/5 131/198/5
f 108/199/4 110/200/4 124/201/4 122/202/4
f 109/203/3 108/204/3 122/205/3 123/206/3
f 106/207/4 107/208/4 121/209/4 120/210/4
f 102/211/5 105/212/5 119/213/5 116/214/5
f 104/215/4 106/207/4 120/210/4 118/216/4
f 67/168/1 100/217/1 114/218/1 107/169/1
f 100/217/1 56/187/1 113/190/1 114/218/1
f 60/219/1 77/220/1 108/221/1 109/222/1
f 61/180/1 59/223/1 103/224/1 105/181/1
f 77/220/1 82/225/1 110/226/1 108/221/1
f 78/227/1 42/167/1 106/170/1 104/228/1
f 83/188/1 60/219/1 109/222/1 111/189/1
f 82/225/1 55/175/1 112/178/1 110/226/1
f 59/223/1 78/227/1 104/228/1 103/224/1
f 101/177/2 102/182/2 116/229/2 115/230/2
f 112/231/7 101/232/7 115/233/7 126/234/7
f 111/235/5 109/236/5 123/237/5 125/238/5
f 103/239/2 104/240/2 118/241/2 117/242/2
f 107/169/2 114/218/2 128/243/2 121/244/2
f 110/200/4 112/231/4 126/234/4 124/201/4
f 105/212/5 103/245/5 117/246/5 119/213/5
f 114/247/8 113/248/8 127/249/8 128/250/8
f 113/248/5 111/235/5 125/238/5 127/249/5
f 139/251/1 138/252/1 133/253/1 130/254/1 129/255/1
f 136/256/1 137/257/1 132/258/1 131/259/1
f 138/252/1 136/260/1 131/261/1 133/253/1
f 137/262/1 140/263/1 134/264/1 132/265/1
f 141/266/1 142/267/1 135/268/1 134/264/1 140/263/1
f 92/194/4 85/269/4 136/270/4 138/195/4
f 58/184/9 97/271/9 142/272/9 141/185/9
f 63/273/5 93/183/5 140/186/5 137/274/5
f 64/162/5 70/166/5 130/275/5 133/197/5
f 71/153/4 45/152/4 134/192/4 135/276/4
f 98/277/10 57/193/10 139/196/10 129/278/10
f 86/159/2 62/158/2 131/279/2 132/280/2
f 70/281/2 98/282/2 129/283/2 130/284/2
f 85/285/3 63/286/3 137/287/3 136/288/3
